<svg width="25" height="24" viewBox="0 0 25 24" fill="none" xmlns="http://www.w3.org/2000/svg">
<path d="M18.1589 16.617L22.4722 20.899L21.0472 22.314L16.7348 18.031C15.1303 19.3082 13.1345 20.0029 11.078 20C6.07476 20 2.01416 15.968 2.01416 11C2.01416 6.032 6.07476 2 11.078 2C16.0812 2 20.1418 6.032 20.1418 11C20.1447 13.042 19.4451 15.0237 18.1589 16.617ZM16.1386 15.875C17.4165 14.5697 18.1302 12.8204 18.1276 11C18.1276 7.133 14.9724 4 11.078 4C7.18356 4 4.02834 7.133 4.02834 11C4.02834 14.867 7.18356 18 11.078 18C12.9113 18.0025 14.673 17.2938 15.9876 16.025L16.1386 15.875Z" fill="#44656D"/>
</svg>
